# xmcd
#
# Track frame offsets:
#	150
#	3125
#	25525
#	57835
#	83850
#	106807
#	132745
#	150952
#	179477
#	204457
#	226407
#
# Disc length: 3244 seconds
#
# Revision: 3
# Processed by: cddbd v1.5.2PL0 Copyright (c) Steve Scherf et al.
# Submitted via: audiograbber 1.83.01
#
DISCID=7d0caa0b
DTITLE=Telecats - Telecats 1
DYEAR=1997
DGENRE=Blues
TTITLE0=Strollin'
TTITLE1=Dark Is The Night
TTITLE2=Brother Where Are You
TTITLE3=Underground System
TTITLE4=Red Top
TTITLE5=Mister You're A Better Man Than I
TTITLE6=Don't Think Twice
TTITLE7=Nelly
TTITLE8=Albatross
TTITLE9=Lucky At Cards
TTITLE10=I Want A Fraulein
EXTD=
EXTT0=
EXTT1=
EXTT2=
EXTT3=
EXTT4=
EXTT5=
EXTT6=
EXTT7=
EXTT8=
EXTT9=
EXTT10=
PLAYORDER=
